<?xml version="1.0" standalone="no"?>
<svg xmlns:xlink="http://www.w3.org/1999/xlink" id="wave" style="transform:rotate(180deg); transition: 0.3s" viewBox="0 0 1440 220" version="1.1" xmlns="http://www.w3.org/2000/svg"><defs><linearGradient id="sw-gradient-0" x1="0" x2="0" y1="1" y2="0"><stop stop-color="rgba(137, 113, 168, 1)" offset="0%"/><stop stop-color="rgba(251, 250, 239, 1)" offset="100%"/></linearGradient></defs><path style="transform:translate(0, 0px); opacity:1" fill="url(#sw-gradient-0)" d="M0,132L120,117.3C240,103,480,73,720,77C960,81,1200,117,1440,117.3C1680,117,1920,81,2160,66C2400,51,2640,59,2880,84.3C3120,110,3360,154,3600,146.7C3840,139,4080,81,4320,47.7C4560,15,4800,7,5040,33C5280,59,5520,117,5760,121C6000,125,6240,73,6480,77C6720,81,6960,139,7200,161.3C7440,183,7680,169,7920,139.3C8160,110,8400,66,8640,58.7C8880,51,9120,81,9360,80.7C9600,81,9840,51,10080,55C10320,59,10560,95,10800,99C11040,103,11280,73,11520,73.3C11760,73,12000,103,12240,113.7C12480,125,12720,117,12960,117.3C13200,117,13440,125,13680,128.3C13920,132,14160,132,14400,128.3C14640,125,14880,117,15120,124.7C15360,132,15600,154,15840,168.7C16080,183,16320,191,16560,190.7C16800,191,17040,183,17160,179.7L17280,176L17280,220L17160,220C17040,220,16800,220,16560,220C16320,220,16080,220,15840,220C15600,220,15360,220,15120,220C14880,220,14640,220,14400,220C14160,220,13920,220,13680,220C13440,220,13200,220,12960,220C12720,220,12480,220,12240,220C12000,220,11760,220,11520,220C11280,220,11040,220,10800,220C10560,220,10320,220,10080,220C9840,220,9600,220,9360,220C9120,220,8880,220,8640,220C8400,220,8160,220,7920,220C7680,220,7440,220,7200,220C6960,220,6720,220,6480,220C6240,220,6000,220,5760,220C5520,220,5280,220,5040,220C4800,220,4560,220,4320,220C4080,220,3840,220,3600,220C3360,220,3120,220,2880,220C2640,220,2400,220,2160,220C1920,220,1680,220,1440,220C1200,220,960,220,720,220C480,220,240,220,120,220L0,220Z"/></svg>