<?xml version="1.0" standalone="no"?>
<svg xmlns:xlink="http://www.w3.org/1999/xlink" id="wave" style="transform:rotate(180deg); transition: 0.3s" viewBox="0 0 1440 100" version="1.1" xmlns="http://www.w3.org/2000/svg"><defs><linearGradient id="sw-gradient-0" x1="0" x2="0" y1="1" y2="0"><stop stop-color="rgba(137, 113, 168, 1)" offset="0%"/><stop stop-color="rgba(251, 250, 239, 1)" offset="100%"/></linearGradient></defs><path style="transform:translate(0, 0px); opacity:1" fill="url(#sw-gradient-0)" d="M0,60L40,60C80,60,160,60,240,55C320,50,400,40,480,38.3C560,37,640,43,720,46.7C800,50,880,50,960,48.3C1040,47,1120,43,1200,41.7C1280,40,1360,40,1440,43.3C1520,47,1600,53,1680,56.7C1760,60,1840,60,1920,56.7C2000,53,2080,47,2160,50C2240,53,2320,67,2400,73.3C2480,80,2560,80,2640,78.3C2720,77,2800,73,2880,70C2960,67,3040,63,3120,53.3C3200,43,3280,27,3360,31.7C3440,37,3520,63,3600,61.7C3680,60,3760,30,3840,26.7C3920,23,4000,47,4080,53.3C4160,60,4240,50,4320,45C4400,40,4480,40,4560,33.3C4640,27,4720,13,4800,20C4880,27,4960,53,5040,56.7C5120,60,5200,40,5280,40C5360,40,5440,60,5520,60C5600,60,5680,40,5720,30L5760,20L5760,100L5720,100C5680,100,5600,100,5520,100C5440,100,5360,100,5280,100C5200,100,5120,100,5040,100C4960,100,4880,100,4800,100C4720,100,4640,100,4560,100C4480,100,4400,100,4320,100C4240,100,4160,100,4080,100C4000,100,3920,100,3840,100C3760,100,3680,100,3600,100C3520,100,3440,100,3360,100C3280,100,3200,100,3120,100C3040,100,2960,100,2880,100C2800,100,2720,100,2640,100C2560,100,2480,100,2400,100C2320,100,2240,100,2160,100C2080,100,2000,100,1920,100C1840,100,1760,100,1680,100C1600,100,1520,100,1440,100C1360,100,1280,100,1200,100C1120,100,1040,100,960,100C880,100,800,100,720,100C640,100,560,100,480,100C400,100,320,100,240,100C160,100,80,100,40,100L0,100Z"/></svg>